<svg xmlns="http://www.w3.org/2000/svg" xmlns:xlink="http://www.w3.org/1999/xlink" xmlns:lucid="lucid" width="1700" height="1375"><g transform="translate(-20 0)" lucid:page-tab-id="0_0"><path d="M80 20h360v140H80z" stroke="#000" stroke-width="2" fill="#fff"/><path d="M80 57.6h360M80 108.7h360" stroke="#000" stroke-width="2" fill="none"/><use xlink:href="#a" transform="matrix(1,0,0,1,88,28) translate(117.525 14.6)"/><use xlink:href="#b" transform="matrix(1,0,0,1,88,28) translate(186.47500000000002 14.6)"/><use xlink:href="#c" transform="matrix(1,0,0,1,92,65.6) translate(0 21.6)"/><use xlink:href="#d" transform="matrix(1,0,0,1,92,65.6) translate(15.5 21.6)"/><use xlink:href="#e" transform="matrix(1,0,0,1,92,116.7) translate(0 21.6)"/><use xlink:href="#f" transform="matrix(1,0,0,1,92,116.7) translate(40 21.6)"/><use xlink:href="#g" transform="matrix(1,0,0,1,92,116.7) translate(55.5 21.6)"/><path d="M80 280h360v140H80z" stroke="#000" stroke-width="2" fill="#fff"/><path d="M80 317.6h360M80 368.7h360" stroke="#000" stroke-width="2" fill="none"/><use xlink:href="#h" transform="matrix(1,0,0,1,88,288) translate(118.07499999999999 14.6)"/><use xlink:href="#i" transform="matrix(1,0,0,1,92,325.6) translate(0 21.6)"/><use xlink:href="#e" transform="matrix(1,0,0,1,92,376.70000000000005) translate(0 21.6)"/><use xlink:href="#f" transform="matrix(1,0,0,1,92,376.70000000000005) translate(40 21.6)"/><use xlink:href="#j" transform="matrix(1,0,0,1,92,376.70000000000005) translate(55.5 21.6)"/><path d="M1040 280h380v140h-380z" stroke="#000" stroke-width="2" fill="#fff"/><path d="M1040 317.6h380m-380 51.1h380" stroke="#000" stroke-width="2" fill="none"/><use xlink:href="#k" transform="matrix(1,0,0,1,1048,288) translate(152.525 14.6)"/><use xlink:href="#i" transform="matrix(1,0,0,1,1052,325.6) translate(0 21.6)"/><use xlink:href="#e" transform="matrix(1,0,0,1,1052,376.70000000000005) translate(0 21.6)"/><use xlink:href="#f" transform="matrix(1,0,0,1,1052,376.70000000000005) translate(40 21.6)"/><use xlink:href="#l" transform="matrix(1,0,0,1,1052,376.70000000000005) translate(55.5 21.6)"/><path d="M480 280h380v140H480z" stroke="#000" stroke-width="2" fill="#fff"/><path d="M480 317.6h380m-380 51.1h380" stroke="#000" stroke-width="2" fill="none"/><use xlink:href="#m" transform="matrix(1,0,0,1,488,288) translate(138.1 14.6)"/><use xlink:href="#i" transform="matrix(1,0,0,1,492,325.6) translate(0 21.6)"/><use xlink:href="#e" transform="matrix(1,0,0,1,492,376.70000000000005) translate(0 21.6)"/><use xlink:href="#f" transform="matrix(1,0,0,1,492,376.70000000000005) translate(40 21.6)"/><use xlink:href="#n" transform="matrix(1,0,0,1,492,376.70000000000005) translate(55.5 21.6)"/><path d="M1140 360h240v60h-240z" fill="none"/><use xlink:href="#o" transform="matrix(1,0,0,1,1140,360) translate(103 33.6)"/><path d="M480 500h380v156H480z" stroke="#000" stroke-width="2" fill="#fff"/><path d="M480 537.6h380m-380 59.1h380" stroke="#000" stroke-width="2" fill="none"/><use xlink:href="#p" transform="matrix(1,0,0,1,488,508) translate(142.6 14.6)"/><use xlink:href="#i" transform="matrix(1,0,0,1,492,545.6) translate(0 25.6)"/><use xlink:href="#q" transform="matrix(1,0,0,1,492,604.7) translate(0 25.6)"/><use xlink:href="#r" transform="matrix(1,0,0,1,492,604.7) translate(40 25.6)"/><use xlink:href="#s" transform="matrix(1,0,0,1,492,604.7) translate(55.5 25.6)"/><path d="M1040 500h380v156h-380z" stroke="#000" stroke-width="2" fill="#fff"/><path d="M1040 537.6h380m-380 59.1h380" stroke="#000" stroke-width="2" fill="none"/><use xlink:href="#t" transform="matrix(1,0,0,1,1048,508) translate(157.025 14.6)"/><use xlink:href="#i" transform="matrix(1,0,0,1,1052,545.6) translate(0 25.6)"/><use xlink:href="#q" transform="matrix(1,0,0,1,1052,604.7) translate(0 25.6)"/><use xlink:href="#r" transform="matrix(1,0,0,1,1052,604.7) translate(40 25.6)"/><use xlink:href="#u" transform="matrix(1,0,0,1,1052,604.7) translate(55.5 25.6)"/><path d="M480 700h380v180H480z" stroke="#000" stroke-width="2" fill="#fff"/><path d="M480 737.6h380m-380 71.1h380" stroke="#000" stroke-width="2" fill="none"/><use xlink:href="#v" transform="matrix(1,0,0,1,488,708) translate(106.625 14.6)"/><use xlink:href="#w" transform="matrix(1,0,0,1,488,708) translate(190.425 14.6)"/><use xlink:href="#i" transform="matrix(1,0,0,1,492,745.6) translate(0 31.6)"/><use xlink:href="#q" transform="matrix(1,0,0,1,492,816.7) translate(0 31.6)"/><use xlink:href="#r" transform="matrix(1,0,0,1,492,816.7) translate(40 31.6)"/><use xlink:href="#x" transform="matrix(1,0,0,1,492,816.7) translate(55.5 31.6)"/><path d="M260 162v98.5" stroke="#000" stroke-width="2" fill="none"/><path d="M261 162.03h-2V161h2z"/><path d="M260 275.76l-4.64-14.26h9.28z" stroke="#000" stroke-width="2"/><path d="M442 90h228v170.5" stroke="#000" stroke-width="2" fill="none"/><path d="M442.03 91H441v-2h1.03z"/><path d="M670 275.76l-4.64-14.26h9.28z" stroke="#000" stroke-width="2"/><path d="M442 63.33h788V260.5" stroke="#000" stroke-width="2" fill="none"/><path d="M442.03 64.33H441v-2h1.03z"/><path d="M1230 275.76l-4.64-14.26h9.28z" stroke="#000" stroke-width="2"/><path d="M1230 422v58.5" stroke="#000" stroke-width="2" fill="none"/><path d="M1231 422.03h-2V421h2z"/><path d="M1230 495.76l-4.64-14.26h9.28z" stroke="#000" stroke-width="2"/><path d="M1422 578h39V351.33h-21.5" stroke="#000" stroke-width="2" fill="none"/><path d="M1422.03 579H1421v-2h1.03z"/><path d="M1424.24 351.33l14.26-4.63v9.27z" stroke="#000" stroke-width="2"/><path d="M1038 578H879.5" stroke="#000" stroke-width="2" fill="none"/><path d="M1039 579h-1.03v-2h1.03z"/><path d="M864.24 578l14.26-4.64v9.28z" stroke="#000" stroke-width="2"/><path d="M670 422v58.5" stroke="#000" stroke-width="2" fill="none"/><path d="M671 422.03h-2V421h2z"/><path d="M670 495.76l-4.64-14.26h9.28z" stroke="#000" stroke-width="2"/><path d="M653.33 658v20h.03v2.5" stroke="#000" stroke-width="2" fill="none"/><path d="M654.33 658.03h-2V657h2z"/><path d="M653.36 695.76l-4.64-14.26H658z" stroke="#000" stroke-width="2"/><path d="M440 940h390v372H440z" stroke="#000" stroke-width="2" fill="#fff"/><path d="M440 977.6h390m-390 253.5h390" stroke="#000" stroke-width="2" fill="none"/><use xlink:href="#y" transform="matrix(1,0,0,1,448,948) translate(154.525 14.6)"/><use xlink:href="#z" transform="matrix(1,0,0,1,452,985.6) translate(0 25.400000000000013)"/><use xlink:href="#A" transform="matrix(1,0,0,1,452,985.6) translate(0 47.000000000000014)"/><use xlink:href="#B" transform="matrix(1,0,0,1,452,985.6) translate(0 68.60000000000002)"/><use xlink:href="#C" transform="matrix(1,0,0,1,452,985.6) translate(0 90.20000000000003)"/><use xlink:href="#D" transform="matrix(1,0,0,1,452,985.6) translate(0 111.80000000000003)"/><use xlink:href="#E" transform="matrix(1,0,0,1,452,985.6) translate(0 133.4)"/><use xlink:href="#F" transform="matrix(1,0,0,1,452,985.6) translate(0 155.00000000000003)"/><use xlink:href="#G" transform="matrix(1,0,0,1,452,985.6) translate(0 176.6)"/><use xlink:href="#H" transform="matrix(1,0,0,1,452,985.6) translate(0 198.20000000000002)"/><use xlink:href="#I" transform="matrix(1,0,0,1,452,985.6) translate(0 219.79999999999998)"/><use xlink:href="#q" transform="matrix(1,0,0,1,452,1239.1) translate(0 25.299999999999997)"/><use xlink:href="#J" transform="matrix(1,0,0,1,452,1239.1) translate(40 25.299999999999997)"/><use xlink:href="#K" transform="matrix(1,0,0,1,452,1239.1) translate(0 46.9)"/><path d="M40 940h360v307H40z" stroke="#000" stroke-width="2" fill="#fff"/><path d="M40 977.6h360M40 1166.3h360" stroke="#000" stroke-width="2" fill="none"/><g><use xlink:href="#L" transform="matrix(1,0,0,1,48,948) translate(151.525 14.6)"/></g><g><use xlink:href="#z" transform="matrix(1,0,0,1,52,985.6) translate(0 25.300000000000004)"/><use xlink:href="#A" transform="matrix(1,0,0,1,52,985.6) translate(0 46.900000000000006)"/><use xlink:href="#B" transform="matrix(1,0,0,1,52,985.6) translate(0 68.50000000000001)"/><use xlink:href="#C" transform="matrix(1,0,0,1,52,985.6) translate(0 90.10000000000002)"/><use xlink:href="#D" transform="matrix(1,0,0,1,52,985.6) translate(0 111.70000000000002)"/><use xlink:href="#E" transform="matrix(1,0,0,1,52,985.6) translate(0 133.3)"/><use xlink:href="#M" transform="matrix(1,0,0,1,52,985.6) translate(0 154.9)"/></g><g><use xlink:href="#q" transform="matrix(1,0,0,1,52,1174.3) translate(0 25.299999999999997)"/><use xlink:href="#J" transform="matrix(1,0,0,1,52,1174.3) translate(40 25.299999999999997)"/><use xlink:href="#N" transform="matrix(1,0,0,1,52,1174.3) translate(0 46.9)"/></g><path d="M870 940h390v415H870z" stroke="#000" stroke-width="2" fill="#fff"/><path d="M870 977.6h390m-390 296.7h390" stroke="#000" stroke-width="2" fill="none"/><g><use xlink:href="#O" transform="matrix(1,0,0,1,878,948) translate(147.425 14.6)"/></g><g><use xlink:href="#z" transform="matrix(1,0,0,1,882,985.6) translate(0 25.300000000000004)"/><use xlink:href="#A" transform="matrix(1,0,0,1,882,985.6) translate(0 46.900000000000006)"/><use xlink:href="#B" transform="matrix(1,0,0,1,882,985.6) translate(0 68.50000000000001)"/><use xlink:href="#C" transform="matrix(1,0,0,1,882,985.6) translate(0 90.10000000000002)"/><use xlink:href="#D" transform="matrix(1,0,0,1,882,985.6) translate(0 111.70000000000002)"/><use xlink:href="#E" transform="matrix(1,0,0,1,882,985.6) translate(0 133.3)"/><use xlink:href="#F" transform="matrix(1,0,0,1,882,985.6) translate(0 154.9)"/><use xlink:href="#G" transform="matrix(1,0,0,1,882,985.6) translate(0 176.5)"/><use xlink:href="#H" transform="matrix(1,0,0,1,882,985.6) translate(0 198.1)"/><use xlink:href="#P" transform="matrix(1,0,0,1,882,985.6) translate(0 219.7)"/><use xlink:href="#Q" transform="matrix(1,0,0,1,882,985.6) translate(0 241.29999999999998)"/><use xlink:href="#R" transform="matrix(1,0,0,1,882,985.6) translate(0 262.9)"/></g><g><use xlink:href="#q" transform="matrix(1,0,0,1,882,1282.3) translate(0 25.299999999999997)"/><use xlink:href="#J" transform="matrix(1,0,0,1,882,1282.3) translate(40 25.299999999999997)"/><use xlink:href="#S" transform="matrix(1,0,0,1,882,1282.3) translate(0 46.9)"/></g><path d="M1300 940h400v372h-400z" stroke="#000" stroke-width="2" fill="#fff"/><path d="M1300 977.6h400m-400 253.5h400" stroke="#000" stroke-width="2" fill="none"/><g><use xlink:href="#T" transform="matrix(1,0,0,1,1308,948) translate(170.525 14.6)"/></g><g><use xlink:href="#z" transform="matrix(1,0,0,1,1312,985.6) translate(0 25.400000000000013)"/><use xlink:href="#U" transform="matrix(1,0,0,1,1312,985.6) translate(0 47.000000000000014)"/><use xlink:href="#V" transform="matrix(1,0,0,1,1312,985.6) translate(0 68.60000000000002)"/><use xlink:href="#W" transform="matrix(1,0,0,1,1312,985.6) translate(0 90.20000000000003)"/><use xlink:href="#G" transform="matrix(1,0,0,1,1312,985.6) translate(0 111.80000000000003)"/><use xlink:href="#H" transform="matrix(1,0,0,1,1312,985.6) translate(0 133.4)"/><use xlink:href="#P" transform="matrix(1,0,0,1,1312,985.6) translate(0 155.00000000000003)"/><use xlink:href="#C" transform="matrix(1,0,0,1,1312,985.6) translate(0 176.6)"/><use xlink:href="#D" transform="matrix(1,0,0,1,1312,985.6) translate(0 198.20000000000002)"/><use xlink:href="#X" transform="matrix(1,0,0,1,1312,985.6) translate(0 219.79999999999998)"/></g><g><use xlink:href="#q" transform="matrix(1,0,0,1,1312,1239.1) translate(0 25.299999999999997)"/><use xlink:href="#J" transform="matrix(1,0,0,1,1312,1239.1) translate(40 25.299999999999997)"/><use xlink:href="#Y" transform="matrix(1,0,0,1,1312,1239.1) translate(0 46.9)"/></g><path d="M560 882v18H220v20.5" stroke="#000" stroke-width="2" fill="none"/><path d="M561 882.03h-2V881h2z"/><path d="M220 935.76l-4.64-14.26h9.28z" stroke="#000" stroke-width="2"/><path d="M624 882v28H516.9v10.5" stroke="#000" stroke-width="2" fill="none"/><path d="M625 882.03h-2V881h2z"/><path d="M516.9 935.76l-4.64-14.26h9.27z" stroke="#000" stroke-width="2"/><path d="M718.67 882v28H1065v10.5" stroke="#000" stroke-width="2" fill="none"/><path d="M719.67 882.03h-2V881h2z"/><path d="M1065 935.76l-4.64-14.26h9.28z" stroke="#000" stroke-width="2"/><path d="M774.67 882v18H1500v20.5" stroke="#000" stroke-width="2" fill="none"/><path d="M775.67 882.03h-2V881h2z"/><path d="M1500 935.76l-4.64-14.26h9.28z" stroke="#000" stroke-width="2"/><defs><path d="M30 0v-248h33v221h125V0H30" id="Z"/><path d="M141-36C126-15 110 5 73 4 37 3 15-17 15-53c-1-64 63-63 125-63 3-35-9-54-41-54-24 1-41 7-42 31l-33-3c5-37 33-52 76-52 45 0 72 20 72 64v82c-1 20 7 32 28 27v20c-31 9-61-2-59-35zM48-53c0 20 12 33 32 33 41-3 63-29 60-74-43 2-92-5-92 41" id="aa"/><path d="M117-194c89-4 53 116 60 194h-32v-121c0-31-8-49-39-48C34-167 62-67 57 0H25l-1-190h30c1 10-1 24 2 32 11-22 29-35 61-36" id="ab"/><path d="M85-194c31 0 48 13 60 33l-1-100h32l1 261h-30c-2-10 0-23-3-31C134-8 116 4 85 4 32 4 16-35 15-94c0-66 23-100 70-100zm9 24c-40 0-46 34-46 75 0 40 6 74 45 74 42 0 51-32 51-76 0-42-9-74-50-73" id="ac"/><path d="M24-231v-30h32v30H24zM24 0v-190h32V0H24" id="ad"/><path d="M177-190C167-65 218 103 67 71c-23-6-38-20-44-43l32-5c15 47 100 32 89-28v-30C133-14 115 1 83 1 29 1 15-40 15-95c0-56 16-97 71-98 29-1 48 16 59 35 1-10 0-23 2-32h30zM94-22c36 0 50-32 50-73 0-42-14-75-50-75-39 0-46 34-46 75s6 73 46 73" id="ae"/><g id="a"><use transform="matrix(0.05,0,0,0.05,0,0)" xlink:href="#Z"/><use transform="matrix(0.05,0,0,0.05,10,0)" xlink:href="#aa"/><use transform="matrix(0.05,0,0,0.05,20,0)" xlink:href="#ab"/><use transform="matrix(0.05,0,0,0.05,30,0)" xlink:href="#ac"/><use transform="matrix(0.05,0,0,0.05,40,0)" xlink:href="#ad"/><use transform="matrix(0.05,0,0,0.05,43.95,0)" xlink:href="#ab"/><use transform="matrix(0.05,0,0,0.05,53.95,0)" xlink:href="#ae"/></g><path d="M115-194c55 1 70 41 70 98S169 2 115 4C84 4 66-9 55-30l1 105H24l-1-265h31l2 30c10-21 28-34 59-34zm-8 174c40 0 45-34 45-75s-6-73-45-74c-42 0-51 32-51 76 0 43 10 73 51 73" id="af"/><path d="M100-194c63 0 86 42 84 106H49c0 40 14 67 53 68 26 1 43-12 49-29l28 8c-11 28-37 45-77 45C44 4 14-33 15-96c1-61 26-98 85-98zm52 81c6-60-76-77-97-28-3 7-6 17-6 28h103" id="ag"/><g id="b"><use transform="matrix(0.05,0,0,0.05,0,0)" xlink:href="#af"/><use transform="matrix(0.05,0,0,0.05,10,0)" xlink:href="#aa"/><use transform="matrix(0.05,0,0,0.05,20,0)" xlink:href="#ae"/><use transform="matrix(0.05,0,0,0.05,30,0)" xlink:href="#ag"/></g><path d="M118-107v75H92v-75H18v-26h74v-75h26v75h74v26h-74" id="ah"/><use transform="matrix(0.05,0,0,0.05,0,0)" xlink:href="#ah" id="c"/><path d="M59-47c-2 24 18 29 38 22v24C64 9 27 4 27-40v-127H5v-23h24l9-43h21v43h35v23H59v120" id="ai"/><path d="M87 75C49 33 22-17 22-94c0-76 28-126 65-167h31c-38 41-64 92-64 168S80 34 118 75H87" id="aj"/><path d="M33-261c38 41 65 92 65 168S71 34 33 75H2C39 34 66-17 66-93S39-220 2-261h31" id="ak"/><g id="d"><use transform="matrix(0.05,0,0,0.05,0,0)" xlink:href="#ae"/><use transform="matrix(0.05,0,0,0.05,10,0)" xlink:href="#ag"/><use transform="matrix(0.05,0,0,0.05,20,0)" xlink:href="#ai"/><use transform="matrix(0.05,0,0,0.05,25,0)" xlink:href="#aj"/><use transform="matrix(0.05,0,0,0.05,30.950000000000003,0)" xlink:href="#ak"/></g><path d="M106-169C34-169 62-67 57 0H25v-261h32l-1 103c12-21 28-36 61-36 89 0 53 116 60 194h-32v-121c2-32-8-49-39-48" id="al"/><g id="e"><use transform="matrix(0.05,0,0,0.05,0,0)" xlink:href="#af"/><use transform="matrix(0.05,0,0,0.05,10,0)" xlink:href="#aa"/><use transform="matrix(0.05,0,0,0.05,20,0)" xlink:href="#ai"/><use transform="matrix(0.05,0,0,0.05,25,0)" xlink:href="#al"/></g><path d="M18-150v-26h174v26H18zm0 90v-26h174v26H18" id="am"/><use transform="matrix(0.05,0,0,0.05,0,0)" xlink:href="#am" id="f"/><path d="M0 4l72-265h28L28 4H0" id="an"/><use transform="matrix(0.05,0,0,0.05,0,0)" xlink:href="#an" id="g"/><path d="M212-179c-10-28-35-45-73-45-59 0-87 40-87 99 0 60 29 101 89 101 43 0 62-24 78-52l27 14C228-24 195 4 139 4 59 4 22-46 18-125c-6-104 99-153 187-111 19 9 31 26 39 46" id="ao"/><path d="M100-194c62-1 85 37 85 99 1 63-27 99-86 99S16-35 15-95c0-66 28-99 85-99zM99-20c44 1 53-31 53-75 0-43-8-75-51-75s-53 32-53 75 10 74 51 75" id="ap"/><path d="M101-234c-31-9-42 10-38 44h38v23H63V0H32v-167H5v-23h27c-7-52 17-82 69-68v24" id="aq"/><path d="M114-163C36-179 61-72 57 0H25l-1-190h30c1 12-1 29 2 39 6-27 23-49 58-41v29" id="ar"/><path d="M210-169c-67 3-38 105-44 169h-31v-121c0-29-5-50-35-48C34-165 62-65 56 0H25l-1-190h30c1 10-1 24 2 32 10-44 99-50 107 0 11-21 27-35 58-36 85-2 47 119 55 194h-31v-121c0-29-5-49-35-48" id="as"/><path d="M96-169c-40 0-48 33-48 73s9 75 48 75c24 0 41-14 43-38l32 2c-6 37-31 61-74 61-59 0-76-41-82-99-10-93 101-131 147-64 4 7 5 14 7 22l-32 3c-4-21-16-35-41-35" id="at"/><g id="h"><use transform="matrix(0.05,0,0,0.05,0,0)" xlink:href="#ao"/><use transform="matrix(0.05,0,0,0.05,12.950000000000001,0)" xlink:href="#ap"/><use transform="matrix(0.05,0,0,0.05,22.950000000000003,0)" xlink:href="#ab"/><use transform="matrix(0.05,0,0,0.05,32.95,0)" xlink:href="#aq"/><use transform="matrix(0.05,0,0,0.05,37.95,0)" xlink:href="#ap"/><use transform="matrix(0.05,0,0,0.05,47.95,0)" xlink:href="#ar"/><use transform="matrix(0.05,0,0,0.05,53.900000000000006,0)" xlink:href="#as"/><use transform="matrix(0.05,0,0,0.05,68.85000000000001,0)" xlink:href="#aa"/><use transform="matrix(0.05,0,0,0.05,78.85000000000001,0)" xlink:href="#ab"/><use transform="matrix(0.05,0,0,0.05,88.85000000000001,0)" xlink:href="#at"/><use transform="matrix(0.05,0,0,0.05,97.85000000000001,0)" xlink:href="#ag"/></g><g id="i"><use transform="matrix(0.05,0,0,0.05,0,0)" xlink:href="#ah"/><use transform="matrix(0.05,0,0,0.05,10.5,0)" xlink:href="#ae"/><use transform="matrix(0.05,0,0,0.05,20.5,0)" xlink:href="#ag"/><use transform="matrix(0.05,0,0,0.05,30.5,0)" xlink:href="#ai"/><use transform="matrix(0.05,0,0,0.05,35.5,0)" xlink:href="#aj"/><use transform="matrix(0.05,0,0,0.05,41.45,0)" xlink:href="#ak"/></g><g id="j"><use transform="matrix(0.05,0,0,0.05,0,0)" xlink:href="#an"/><use transform="matrix(0.05,0,0,0.05,5,0)" xlink:href="#at"/><use transform="matrix(0.05,0,0,0.05,14,0)" xlink:href="#ap"/><use transform="matrix(0.05,0,0,0.05,24,0)" xlink:href="#ab"/><use transform="matrix(0.05,0,0,0.05,34,0)" xlink:href="#aq"/><use transform="matrix(0.05,0,0,0.05,39,0)" xlink:href="#ap"/><use transform="matrix(0.05,0,0,0.05,49,0)" xlink:href="#ar"/><use transform="matrix(0.05,0,0,0.05,54.95,0)" xlink:href="#as"/><use transform="matrix(0.05,0,0,0.05,69.9,0)" xlink:href="#aa"/><use transform="matrix(0.05,0,0,0.05,79.9,0)" xlink:href="#ab"/><use transform="matrix(0.05,0,0,0.05,89.9,0)" xlink:href="#at"/><use transform="matrix(0.05,0,0,0.05,98.9,0)" xlink:href="#ag"/></g><path d="M143 4C61 4 22-44 18-125c-5-107 100-154 193-111 17 8 29 25 37 43l-32 9c-13-25-37-40-76-40-61 0-88 39-88 99 0 61 29 100 91 101 35 0 62-11 79-27v-45h-74v-28h105v86C228-13 192 4 143 4" id="au"/><path d="M84 4C-5 8 30-112 23-190h32v120c0 31 7 50 39 49 72-2 45-101 50-169h31l1 190h-30c-1-10 1-25-2-33-11 22-28 36-60 37" id="av"/><path d="M135-143c-3-34-86-38-87 0 15 53 115 12 119 90S17 21 10-45l28-5c4 36 97 45 98 0-10-56-113-15-118-90-4-57 82-63 122-42 12 7 21 19 24 35" id="aw"/><g id="k"><use transform="matrix(0.05,0,0,0.05,0,0)" xlink:href="#au"/><use transform="matrix(0.05,0,0,0.05,14,0)" xlink:href="#ar"/><use transform="matrix(0.05,0,0,0.05,19.95,0)" xlink:href="#ap"/><use transform="matrix(0.05,0,0,0.05,29.950000000000003,0)" xlink:href="#av"/><use transform="matrix(0.05,0,0,0.05,39.95,0)" xlink:href="#af"/><use transform="matrix(0.05,0,0,0.05,49.95,0)" xlink:href="#aw"/></g><g id="l"><use transform="matrix(0.05,0,0,0.05,0,0)" xlink:href="#an"/><use transform="matrix(0.05,0,0,0.05,5,0)" xlink:href="#ae"/><use transform="matrix(0.05,0,0,0.05,15,0)" xlink:href="#ar"/><use transform="matrix(0.05,0,0,0.05,20.95,0)" xlink:href="#ap"/><use transform="matrix(0.05,0,0,0.05,30.950000000000003,0)" xlink:href="#av"/><use transform="matrix(0.05,0,0,0.05,40.95,0)" xlink:href="#af"/><use transform="matrix(0.05,0,0,0.05,50.95,0)" xlink:href="#aw"/></g><path d="M24 0v-261h32V0H24" id="ax"/><g id="m"><use transform="matrix(0.05,0,0,0.05,0,0)" xlink:href="#ao"/><use transform="matrix(0.05,0,0,0.05,12.950000000000001,0)" xlink:href="#ap"/><use transform="matrix(0.05,0,0,0.05,22.950000000000003,0)" xlink:href="#ax"/><use transform="matrix(0.05,0,0,0.05,26.900000000000002,0)" xlink:href="#ax"/><use transform="matrix(0.05,0,0,0.05,30.85,0)" xlink:href="#ag"/><use transform="matrix(0.05,0,0,0.05,40.85,0)" xlink:href="#at"/><use transform="matrix(0.05,0,0,0.05,49.85,0)" xlink:href="#ai"/><use transform="matrix(0.05,0,0,0.05,54.85,0)" xlink:href="#ad"/><use transform="matrix(0.05,0,0,0.05,58.800000000000004,0)" xlink:href="#ap"/><use transform="matrix(0.05,0,0,0.05,68.80000000000001,0)" xlink:href="#ab"/><use transform="matrix(0.05,0,0,0.05,78.80000000000001,0)" xlink:href="#aw"/></g><g id="n"><use transform="matrix(0.05,0,0,0.05,0,0)" xlink:href="#an"/><use transform="matrix(0.05,0,0,0.05,5,0)" xlink:href="#at"/><use transform="matrix(0.05,0,0,0.05,14,0)" xlink:href="#ap"/><use transform="matrix(0.05,0,0,0.05,24,0)" xlink:href="#ax"/><use transform="matrix(0.05,0,0,0.05,27.950000000000003,0)" xlink:href="#ax"/><use transform="matrix(0.05,0,0,0.05,31.899999999999995,0)" xlink:href="#ag"/><use transform="matrix(0.05,0,0,0.05,41.9,0)" xlink:href="#at"/><use transform="matrix(0.05,0,0,0.05,50.9,0)" xlink:href="#ai"/><use transform="matrix(0.05,0,0,0.05,55.900000000000006,0)" xlink:href="#ad"/><use transform="matrix(0.05,0,0,0.05,59.85,0)" xlink:href="#ap"/><use transform="matrix(0.05,0,0,0.05,69.85,0)" xlink:href="#ab"/><use transform="matrix(0.05,0,0,0.05,79.85,0)" xlink:href="#aw"/></g><g id="o"><use transform="matrix(0.05,0,0,0.05,0,0)" xlink:href="#ai"/><use transform="matrix(0.05,0,0,0.05,5,0)" xlink:href="#aa"/><use transform="matrix(0.05,0,0,0.05,15,0)" xlink:href="#ae"/><use transform="matrix(0.05,0,0,0.05,25,0)" xlink:href="#aw"/></g><g id="p"><use transform="matrix(0.05,0,0,0.05,0,0)" xlink:href="#ao"/><use transform="matrix(0.05,0,0,0.05,12.950000000000001,0)" xlink:href="#ap"/><use transform="matrix(0.05,0,0,0.05,22.950000000000003,0)" xlink:href="#ax"/><use transform="matrix(0.05,0,0,0.05,26.900000000000002,0)" xlink:href="#ax"/><use transform="matrix(0.05,0,0,0.05,30.85,0)" xlink:href="#ag"/><use transform="matrix(0.05,0,0,0.05,40.85,0)" xlink:href="#at"/><use transform="matrix(0.05,0,0,0.05,49.85,0)" xlink:href="#ai"/><use transform="matrix(0.05,0,0,0.05,54.85,0)" xlink:href="#ad"/><use transform="matrix(0.05,0,0,0.05,58.800000000000004,0)" xlink:href="#ap"/><use transform="matrix(0.05,0,0,0.05,68.80000000000001,0)" xlink:href="#ab"/></g><g id="q"><use transform="matrix(0.05,0,0,0.05,0,0)" xlink:href="#af"/><use transform="matrix(0.05,0,0,0.05,10,0)" xlink:href="#aa"/><use transform="matrix(0.05,0,0,0.05,20,0)" xlink:href="#ai"/><use transform="matrix(0.05,0,0,0.05,25,0)" xlink:href="#al"/></g><use transform="matrix(0.05,0,0,0.05,0,0)" xlink:href="#am" id="r"/><path d="M39-94c74 12-11 154 75 146v23c-44 4-70-10-70-52C44-23 55-84 6-82v-22c81 4-7-162 84-157h24v23c-82-15-2 131-75 144" id="ay"/><path d="M33 0v-248h34V0H33" id="az"/><path d="M76-40C78 24 84 88 6 75V52C86 64 9-79 80-94c-40-6-34-59-34-106 1-29-11-41-40-38v-23c44-4 70 10 70 52 0 47-12 108 38 105v22c-26 1-39 14-38 42" id="aA"/><g id="s"><use transform="matrix(0.05,0,0,0.05,0,0)" xlink:href="#an"/><use transform="matrix(0.05,0,0,0.05,5,0)" xlink:href="#at"/><use transform="matrix(0.05,0,0,0.05,14,0)" xlink:href="#ap"/><use transform="matrix(0.05,0,0,0.05,24,0)" xlink:href="#ax"/><use transform="matrix(0.05,0,0,0.05,27.950000000000003,0)" xlink:href="#ax"/><use transform="matrix(0.05,0,0,0.05,31.899999999999995,0)" xlink:href="#ag"/><use transform="matrix(0.05,0,0,0.05,41.9,0)" xlink:href="#at"/><use transform="matrix(0.05,0,0,0.05,50.9,0)" xlink:href="#ai"/><use transform="matrix(0.05,0,0,0.05,55.900000000000006,0)" xlink:href="#ad"/><use transform="matrix(0.05,0,0,0.05,59.85,0)" xlink:href="#ap"/><use transform="matrix(0.05,0,0,0.05,69.85,0)" xlink:href="#ab"/><use transform="matrix(0.05,0,0,0.05,79.85,0)" xlink:href="#aw"/><use transform="matrix(0.05,0,0,0.05,88.85,0)" xlink:href="#an"/><use transform="matrix(0.05,0,0,0.05,93.85,0)" xlink:href="#ay"/><use transform="matrix(0.05,0,0,0.05,99.85,0)" xlink:href="#at"/><use transform="matrix(0.05,0,0,0.05,108.84999999999998,0)" xlink:href="#ap"/><use transform="matrix(0.05,0,0,0.05,118.84999999999998,0)" xlink:href="#ax"/><use transform="matrix(0.05,0,0,0.05,122.80000000000001,0)" xlink:href="#ax"/><use transform="matrix(0.05,0,0,0.05,126.75,0)" xlink:href="#ag"/><use transform="matrix(0.05,0,0,0.05,136.75,0)" xlink:href="#at"/><use transform="matrix(0.05,0,0,0.05,145.75,0)" xlink:href="#ai"/><use transform="matrix(0.05,0,0,0.05,150.75,0)" xlink:href="#ad"/><use transform="matrix(0.05,0,0,0.05,154.7,0)" xlink:href="#ap"/><use transform="matrix(0.05,0,0,0.05,164.7,0)" xlink:href="#ab"/><use transform="matrix(0.05,0,0,0.05,174.7,0)" xlink:href="#az"/><use transform="matrix(0.05,0,0,0.05,179.7,0)" xlink:href="#ac"/><use transform="matrix(0.05,0,0,0.05,189.7,0)" xlink:href="#aA"/></g><g id="t"><use transform="matrix(0.05,0,0,0.05,0,0)" xlink:href="#au"/><use transform="matrix(0.05,0,0,0.05,14,0)" xlink:href="#ar"/><use transform="matrix(0.05,0,0,0.05,19.95,0)" xlink:href="#ap"/><use transform="matrix(0.05,0,0,0.05,29.950000000000003,0)" xlink:href="#av"/><use transform="matrix(0.05,0,0,0.05,39.95,0)" xlink:href="#af"/></g><g id="u"><use transform="matrix(0.05,0,0,0.05,0,0)" xlink:href="#an"/><use transform="matrix(0.05,0,0,0.05,5,0)" xlink:href="#ae"/><use transform="matrix(0.05,0,0,0.05,15,0)" xlink:href="#ar"/><use transform="matrix(0.05,0,0,0.05,20.95,0)" xlink:href="#ap"/><use transform="matrix(0.05,0,0,0.05,30.950000000000003,0)" xlink:href="#av"/><use transform="matrix(0.05,0,0,0.05,40.95,0)" xlink:href="#af"/><use transform="matrix(0.05,0,0,0.05,50.95,0)" xlink:href="#aw"/><use transform="matrix(0.05,0,0,0.05,59.95,0)" xlink:href="#an"/><use transform="matrix(0.05,0,0,0.05,64.95,0)" xlink:href="#ae"/><use transform="matrix(0.05,0,0,0.05,74.95,0)" xlink:href="#ar"/><use transform="matrix(0.05,0,0,0.05,80.9,0)" xlink:href="#ap"/><use transform="matrix(0.05,0,0,0.05,90.9,0)" xlink:href="#av"/><use transform="matrix(0.05,0,0,0.05,100.9,0)" xlink:href="#af"/><use transform="matrix(0.05,0,0,0.05,110.9,0)" xlink:href="#az"/><use transform="matrix(0.05,0,0,0.05,115.9,0)" xlink:href="#ac"/></g><g id="v"><use transform="matrix(0.05,0,0,0.05,0,0)" xlink:href="#ao"/><use transform="matrix(0.05,0,0,0.05,12.950000000000001,0)" xlink:href="#ap"/><use transform="matrix(0.05,0,0,0.05,22.950000000000003,0)" xlink:href="#ax"/><use transform="matrix(0.05,0,0,0.05,26.900000000000002,0)" xlink:href="#ax"/><use transform="matrix(0.05,0,0,0.05,30.85,0)" xlink:href="#ag"/><use transform="matrix(0.05,0,0,0.05,40.85,0)" xlink:href="#at"/><use transform="matrix(0.05,0,0,0.05,49.85,0)" xlink:href="#ai"/><use transform="matrix(0.05,0,0,0.05,54.85,0)" xlink:href="#ad"/><use transform="matrix(0.05,0,0,0.05,58.800000000000004,0)" xlink:href="#ap"/><use transform="matrix(0.05,0,0,0.05,68.80000000000001,0)" xlink:href="#ab"/></g><g id="w"><use transform="matrix(0.05,0,0,0.05,0,0)" xlink:href="#ad"/><use transform="matrix(0.05,0,0,0.05,3.95,0)" xlink:href="#ab"/><use transform="matrix(0.05,0,0,0.05,13.949999999999998,0)" xlink:href="#aw"/><use transform="matrix(0.05,0,0,0.05,22.95,0)" xlink:href="#ai"/><use transform="matrix(0.05,0,0,0.05,27.950000000000003,0)" xlink:href="#aa"/><use transform="matrix(0.05,0,0,0.05,37.95,0)" xlink:href="#ab"/><use transform="matrix(0.05,0,0,0.05,47.95,0)" xlink:href="#at"/><use transform="matrix(0.05,0,0,0.05,56.95,0)" xlink:href="#ag"/></g><g id="x"><use transform="matrix(0.05,0,0,0.05,0,0)" xlink:href="#an"/><use transform="matrix(0.05,0,0,0.05,5,0)" xlink:href="#at"/><use transform="matrix(0.05,0,0,0.05,14,0)" xlink:href="#ap"/><use transform="matrix(0.05,0,0,0.05,24,0)" xlink:href="#ax"/><use transform="matrix(0.05,0,0,0.05,27.950000000000003,0)" xlink:href="#ax"/><use transform="matrix(0.05,0,0,0.05,31.899999999999995,0)" xlink:href="#ag"/><use transform="matrix(0.05,0,0,0.05,41.9,0)" xlink:href="#at"/><use transform="matrix(0.05,0,0,0.05,50.9,0)" xlink:href="#ai"/><use transform="matrix(0.05,0,0,0.05,55.900000000000006,0)" xlink:href="#ad"/><use transform="matrix(0.05,0,0,0.05,59.85,0)" xlink:href="#ap"/><use transform="matrix(0.05,0,0,0.05,69.85,0)" xlink:href="#ab"/><use transform="matrix(0.05,0,0,0.05,79.85,0)" xlink:href="#aw"/><use transform="matrix(0.05,0,0,0.05,88.85,0)" xlink:href="#an"/><use transform="matrix(0.05,0,0,0.05,93.85,0)" xlink:href="#ay"/><use transform="matrix(0.05,0,0,0.05,99.85,0)" xlink:href="#at"/><use transform="matrix(0.05,0,0,0.05,108.84999999999998,0)" xlink:href="#ap"/><use transform="matrix(0.05,0,0,0.05,118.84999999999998,0)" xlink:href="#ax"/><use transform="matrix(0.05,0,0,0.05,122.80000000000001,0)" xlink:href="#ax"/><use transform="matrix(0.05,0,0,0.05,126.75,0)" xlink:href="#ag"/><use transform="matrix(0.05,0,0,0.05,136.75,0)" xlink:href="#at"/><use transform="matrix(0.05,0,0,0.05,145.75,0)" xlink:href="#ai"/><use transform="matrix(0.05,0,0,0.05,150.75,0)" xlink:href="#ad"/><use transform="matrix(0.05,0,0,0.05,154.7,0)" xlink:href="#ap"/><use transform="matrix(0.05,0,0,0.05,164.7,0)" xlink:href="#ab"/><use transform="matrix(0.05,0,0,0.05,174.7,0)" xlink:href="#az"/><use transform="matrix(0.05,0,0,0.05,179.7,0)" xlink:href="#ac"/><use transform="matrix(0.05,0,0,0.05,189.7,0)" xlink:href="#aA"/><use transform="matrix(0.05,0,0,0.05,195.7,0)" xlink:href="#an"/><use transform="matrix(0.05,0,0,0.05,200.7,0)" xlink:href="#ay"/><use transform="matrix(0.05,0,0,0.05,206.69999999999996,0)" xlink:href="#ad"/><use transform="matrix(0.05,0,0,0.05,210.64999999999998,0)" xlink:href="#ab"/><use transform="matrix(0.05,0,0,0.05,220.64999999999998,0)" xlink:href="#aw"/><use transform="matrix(0.05,0,0,0.05,229.64999999999998,0)" xlink:href="#ai"/><use transform="matrix(0.05,0,0,0.05,234.64999999999998,0)" xlink:href="#aa"/><use transform="matrix(0.05,0,0,0.05,244.64999999999998,0)" xlink:href="#ab"/><use transform="matrix(0.05,0,0,0.05,254.64999999999998,0)" xlink:href="#at"/><use transform="matrix(0.05,0,0,0.05,263.65,0)" xlink:href="#ag"/><use transform="matrix(0.05,0,0,0.05,273.65,0)" xlink:href="#az"/><use transform="matrix(0.05,0,0,0.05,278.65,0)" xlink:href="#ac"/><use transform="matrix(0.05,0,0,0.05,288.65,0)" xlink:href="#aA"/></g><path d="M30-248c87 1 191-15 191 75 0 78-77 80-158 76V0H30v-248zm33 125c57 0 124 11 124-50 0-59-68-47-124-48v98" id="aB"/><path d="M179-190L93 31C79 59 56 82 12 73V49c39 6 53-20 64-50L1-190h34L92-34l54-156h33" id="aC"/><g id="y"><use transform="matrix(0.05,0,0,0.05,0,0)" xlink:href="#aB"/><use transform="matrix(0.05,0,0,0.05,12,0)" xlink:href="#ap"/><use transform="matrix(0.05,0,0,0.05,22,0)" xlink:href="#ax"/><use transform="matrix(0.05,0,0,0.05,25.950000000000003,0)" xlink:href="#aC"/><use transform="matrix(0.05,0,0,0.05,34.95,0)" xlink:href="#ae"/><use transform="matrix(0.05,0,0,0.05,44.95,0)" xlink:href="#ap"/><use transform="matrix(0.05,0,0,0.05,54.95,0)" xlink:href="#ab"/></g><g id="z"><use transform="matrix(0.05,0,0,0.05,0,0)" xlink:href="#ah"/><use transform="matrix(0.05,0,0,0.05,10.5,0)" xlink:href="#ae"/><use transform="matrix(0.05,0,0,0.05,20.5,0)" xlink:href="#ag"/><use transform="matrix(0.05,0,0,0.05,30.5,0)" xlink:href="#ai"/><use transform="matrix(0.05,0,0,0.05,35.5,0)" xlink:href="#aj"/><use transform="matrix(0.05,0,0,0.05,41.45,0)" xlink:href="#ak"/></g><path d="M33-154v-36h34v36H33zM33 0v-36h34V0H33" id="aD"/><g id="A"><use transform="matrix(0.05,0,0,0.05,0,0)" xlink:href="#ah"/><use transform="matrix(0.05,0,0,0.05,10.5,0)" xlink:href="#af"/><use transform="matrix(0.05,0,0,0.05,20.5,0)" xlink:href="#aa"/><use transform="matrix(0.05,0,0,0.05,30.5,0)" xlink:href="#ar"/><use transform="matrix(0.05,0,0,0.05,36.45,0)" xlink:href="#aa"/><use transform="matrix(0.05,0,0,0.05,46.45,0)" xlink:href="#as"/><use transform="matrix(0.05,0,0,0.05,61.400000000000006,0)" xlink:href="#ag"/><use transform="matrix(0.05,0,0,0.05,71.4,0)" xlink:href="#ai"/><use transform="matrix(0.05,0,0,0.05,76.4,0)" xlink:href="#ag"/><use transform="matrix(0.05,0,0,0.05,86.4,0)" xlink:href="#ar"/><use transform="matrix(0.05,0,0,0.05,92.35000000000001,0)" xlink:href="#ab"/><use transform="matrix(0.05,0,0,0.05,102.35000000000001,0)" xlink:href="#aa"/><use transform="matrix(0.05,0,0,0.05,112.35000000000001,0)" xlink:href="#as"/><use transform="matrix(0.05,0,0,0.05,127.30000000000001,0)" xlink:href="#ag"/><use transform="matrix(0.05,0,0,0.05,137.3,0)" xlink:href="#aD"/><use transform="matrix(0.05,0,0,0.05,142.3,0)" xlink:href="#aw"/><use transform="matrix(0.05,0,0,0.05,151.3,0)" xlink:href="#ai"/><use transform="matrix(0.05,0,0,0.05,156.3,0)" xlink:href="#ar"/><use transform="matrix(0.05,0,0,0.05,162.25,0)" xlink:href="#ad"/><use transform="matrix(0.05,0,0,0.05,166.2,0)" xlink:href="#ab"/><use transform="matrix(0.05,0,0,0.05,176.2,0)" xlink:href="#ae"/></g><g id="B"><use transform="matrix(0.05,0,0,0.05,0,0)" xlink:href="#ah"/><use transform="matrix(0.05,0,0,0.05,10.5,0)" xlink:href="#ai"/><use transform="matrix(0.05,0,0,0.05,15.5,0)" xlink:href="#ad"/><use transform="matrix(0.05,0,0,0.05,19.45,0)" xlink:href="#as"/><use transform="matrix(0.05,0,0,0.05,34.4,0)" xlink:href="#ag"/><use transform="matrix(0.05,0,0,0.05,44.4,0)" xlink:href="#aD"/><use transform="matrix(0.05,0,0,0.05,49.4,0)" xlink:href="#ac"/><use transform="matrix(0.05,0,0,0.05,59.400000000000006,0)" xlink:href="#aa"/><use transform="matrix(0.05,0,0,0.05,69.4,0)" xlink:href="#ai"/><use transform="matrix(0.05,0,0,0.05,74.4,0)" xlink:href="#ag"/><use transform="matrix(0.05,0,0,0.05,84.4,0)" xlink:href="#ai"/><use transform="matrix(0.05,0,0,0.05,89.4,0)" xlink:href="#ad"/><use transform="matrix(0.05,0,0,0.05,93.35000000000001,0)" xlink:href="#as"/><use transform="matrix(0.05,0,0,0.05,108.30000000000001,0)" xlink:href="#ag"/></g><g id="C"><use transform="matrix(0.05,0,0,0.05,0,0)" xlink:href="#ah"/><use transform="matrix(0.05,0,0,0.05,10.5,0)" xlink:href="#at"/><use transform="matrix(0.05,0,0,0.05,19.5,0)" xlink:href="#ar"/><use transform="matrix(0.05,0,0,0.05,25.45,0)" xlink:href="#aw"/><use transform="matrix(0.05,0,0,0.05,34.45,0)" xlink:href="#aD"/><use transform="matrix(0.05,0,0,0.05,39.45,0)" xlink:href="#aw"/><use transform="matrix(0.05,0,0,0.05,48.45,0)" xlink:href="#ai"/><use transform="matrix(0.05,0,0,0.05,53.45,0)" xlink:href="#ar"/><use transform="matrix(0.05,0,0,0.05,59.400000000000006,0)" xlink:href="#ad"/><use transform="matrix(0.05,0,0,0.05,63.35,0)" xlink:href="#ab"/><use transform="matrix(0.05,0,0,0.05,73.35000000000001,0)" xlink:href="#ae"/></g><path d="M63-220v92h138v28H63V0H30v-248h175v28H63" id="aE"/><g id="D"><use transform="matrix(0.05,0,0,0.05,0,0)" xlink:href="#ah"/><use transform="matrix(0.05,0,0,0.05,10.5,0)" xlink:href="#ap"/><use transform="matrix(0.05,0,0,0.05,20.5,0)" xlink:href="#av"/><use transform="matrix(0.05,0,0,0.05,30.5,0)" xlink:href="#ai"/><use transform="matrix(0.05,0,0,0.05,35.5,0)" xlink:href="#af"/><use transform="matrix(0.05,0,0,0.05,45.5,0)" xlink:href="#av"/><use transform="matrix(0.05,0,0,0.05,55.5,0)" xlink:href="#ai"/><use transform="matrix(0.05,0,0,0.05,60.5,0)" xlink:href="#aE"/><use transform="matrix(0.05,0,0,0.05,71.45,0)" xlink:href="#ap"/><use transform="matrix(0.05,0,0,0.05,81.45,0)" xlink:href="#ar"/><use transform="matrix(0.05,0,0,0.05,87.4,0)" xlink:href="#as"/><use transform="matrix(0.05,0,0,0.05,102.35000000000001,0)" xlink:href="#aa"/><use transform="matrix(0.05,0,0,0.05,112.35000000000001,0)" xlink:href="#ai"/><use transform="matrix(0.05,0,0,0.05,117.35000000000001,0)" xlink:href="#aD"/><use transform="matrix(0.05,0,0,0.05,122.35000000000001,0)" xlink:href="#aw"/><use transform="matrix(0.05,0,0,0.05,131.35000000000002,0)" xlink:href="#ai"/><use transform="matrix(0.05,0,0,0.05,136.35000000000002,0)" xlink:href="#ar"/><use transform="matrix(0.05,0,0,0.05,142.3,0)" xlink:href="#ad"/><use transform="matrix(0.05,0,0,0.05,146.25,0)" xlink:href="#ab"/><use transform="matrix(0.05,0,0,0.05,156.25,0)" xlink:href="#ae"/></g><g id="E"><use transform="matrix(0.05,0,0,0.05,0,0)" xlink:href="#ah"/><use transform="matrix(0.05,0,0,0.05,10.5,0)" xlink:href="#ad"/><use transform="matrix(0.05,0,0,0.05,14.449999999999998,0)" xlink:href="#ab"/><use transform="matrix(0.05,0,0,0.05,24.45,0)" xlink:href="#ai"/><use transform="matrix(0.05,0,0,0.05,29.450000000000003,0)" xlink:href="#ag"/><use transform="matrix(0.05,0,0,0.05,39.45,0)" xlink:href="#ar"/><use transform="matrix(0.05,0,0,0.05,45.400000000000006,0)" xlink:href="#af"/><use transform="matrix(0.05,0,0,0.05,55.400000000000006,0)" xlink:href="#ap"/><use transform="matrix(0.05,0,0,0.05,65.4,0)" xlink:href="#ax"/><use transform="matrix(0.05,0,0,0.05,69.35000000000001,0)" xlink:href="#aa"/><use transform="matrix(0.05,0,0,0.05,79.35000000000001,0)" xlink:href="#ai"/><use transform="matrix(0.05,0,0,0.05,84.35000000000001,0)" xlink:href="#ad"/><use transform="matrix(0.05,0,0,0.05,88.30000000000001,0)" xlink:href="#ap"/><use transform="matrix(0.05,0,0,0.05,98.30000000000001,0)" xlink:href="#ab"/><use transform="matrix(0.05,0,0,0.05,108.30000000000001,0)" xlink:href="#aD"/><use transform="matrix(0.05,0,0,0.05,113.30000000000001,0)" xlink:href="#aw"/><use transform="matrix(0.05,0,0,0.05,122.30000000000001,0)" xlink:href="#ai"/><use transform="matrix(0.05,0,0,0.05,127.30000000000001,0)" xlink:href="#ar"/><use transform="matrix(0.05,0,0,0.05,133.25,0)" xlink:href="#ad"/><use transform="matrix(0.05,0,0,0.05,137.2,0)" xlink:href="#ab"/><use transform="matrix(0.05,0,0,0.05,147.2,0)" xlink:href="#ae"/></g><g id="F"><use transform="matrix(0.05,0,0,0.05,0,0)" xlink:href="#ah"/><use transform="matrix(0.05,0,0,0.05,10.5,0)" xlink:href="#at"/><use transform="matrix(0.05,0,0,0.05,19.5,0)" xlink:href="#ap"/><use transform="matrix(0.05,0,0,0.05,29.5,0)" xlink:href="#ap"/><use transform="matrix(0.05,0,0,0.05,39.5,0)" xlink:href="#ar"/><use transform="matrix(0.05,0,0,0.05,45.45,0)" xlink:href="#ac"/><use transform="matrix(0.05,0,0,0.05,55.45,0)" xlink:href="#aw"/><use transform="matrix(0.05,0,0,0.05,64.45,0)" xlink:href="#aD"/><use transform="matrix(0.05,0,0,0.05,69.45,0)" xlink:href="#aw"/><use transform="matrix(0.05,0,0,0.05,78.45,0)" xlink:href="#ai"/><use transform="matrix(0.05,0,0,0.05,83.45,0)" xlink:href="#ar"/><use transform="matrix(0.05,0,0,0.05,89.4,0)" xlink:href="#ad"/><use transform="matrix(0.05,0,0,0.05,93.35000000000001,0)" xlink:href="#ab"/><use transform="matrix(0.05,0,0,0.05,103.35000000000001,0)" xlink:href="#ae"/></g><path d="M195 0l-74-108L45 0H8l94-129-87-119h37l69 98 67-98h37l-84 118L233 0h-38" id="aF"/><g id="G"><use transform="matrix(0.05,0,0,0.05,0,0)" xlink:href="#ah"/><use transform="matrix(0.05,0,0,0.05,10.5,0)" xlink:href="#ad"/><use transform="matrix(0.05,0,0,0.05,14.449999999999998,0)" xlink:href="#ab"/><use transform="matrix(0.05,0,0,0.05,24.45,0)" xlink:href="#ai"/><use transform="matrix(0.05,0,0,0.05,29.450000000000003,0)" xlink:href="#ag"/><use transform="matrix(0.05,0,0,0.05,39.45,0)" xlink:href="#ar"/><use transform="matrix(0.05,0,0,0.05,45.400000000000006,0)" xlink:href="#af"/><use transform="matrix(0.05,0,0,0.05,55.400000000000006,0)" xlink:href="#ap"/><use transform="matrix(0.05,0,0,0.05,65.4,0)" xlink:href="#ax"/><use transform="matrix(0.05,0,0,0.05,69.35000000000001,0)" xlink:href="#aa"/><use transform="matrix(0.05,0,0,0.05,79.35000000000001,0)" xlink:href="#ai"/><use transform="matrix(0.05,0,0,0.05,84.35000000000001,0)" xlink:href="#ad"/><use transform="matrix(0.05,0,0,0.05,88.30000000000001,0)" xlink:href="#ap"/><use transform="matrix(0.05,0,0,0.05,98.30000000000001,0)" xlink:href="#ab"/><use transform="matrix(0.05,0,0,0.05,108.30000000000001,0)" xlink:href="#aF"/><use transform="matrix(0.05,0,0,0.05,120.30000000000001,0)" xlink:href="#aD"/><use transform="matrix(0.05,0,0,0.05,125.30000000000001,0)" xlink:href="#aw"/><use transform="matrix(0.05,0,0,0.05,134.3,0)" xlink:href="#ai"/><use transform="matrix(0.05,0,0,0.05,139.3,0)" xlink:href="#ar"/><use transform="matrix(0.05,0,0,0.05,145.25,0)" xlink:href="#ad"/><use transform="matrix(0.05,0,0,0.05,149.2,0)" xlink:href="#ab"/><use transform="matrix(0.05,0,0,0.05,159.2,0)" xlink:href="#ae"/></g><path d="M137-103V0h-34v-103L8-248h37l75 118 75-118h37" id="aG"/><g id="H"><use transform="matrix(0.05,0,0,0.05,0,0)" xlink:href="#ah"/><use transform="matrix(0.05,0,0,0.05,10.5,0)" xlink:href="#ad"/><use transform="matrix(0.05,0,0,0.05,14.449999999999998,0)" xlink:href="#ab"/><use transform="matrix(0.05,0,0,0.05,24.45,0)" xlink:href="#ai"/><use transform="matrix(0.05,0,0,0.05,29.450000000000003,0)" xlink:href="#ag"/><use transform="matrix(0.05,0,0,0.05,39.45,0)" xlink:href="#ar"/><use transform="matrix(0.05,0,0,0.05,45.400000000000006,0)" xlink:href="#af"/><use transform="matrix(0.05,0,0,0.05,55.400000000000006,0)" xlink:href="#ap"/><use transform="matrix(0.05,0,0,0.05,65.4,0)" xlink:href="#ax"/><use transform="matrix(0.05,0,0,0.05,69.35000000000001,0)" xlink:href="#aa"/><use transform="matrix(0.05,0,0,0.05,79.35000000000001,0)" xlink:href="#ai"/><use transform="matrix(0.05,0,0,0.05,84.35000000000001,0)" xlink:href="#ad"/><use transform="matrix(0.05,0,0,0.05,88.30000000000001,0)" xlink:href="#ap"/><use transform="matrix(0.05,0,0,0.05,98.30000000000001,0)" xlink:href="#ab"/><use transform="matrix(0.05,0,0,0.05,108.30000000000001,0)" xlink:href="#aG"/><use transform="matrix(0.05,0,0,0.05,119.30000000000001,0)" xlink:href="#aD"/><use transform="matrix(0.05,0,0,0.05,124.30000000000001,0)" xlink:href="#aw"/><use transform="matrix(0.05,0,0,0.05,133.3,0)" xlink:href="#ai"/><use transform="matrix(0.05,0,0,0.05,138.3,0)" xlink:href="#ar"/><use transform="matrix(0.05,0,0,0.05,144.25,0)" xlink:href="#ad"/><use transform="matrix(0.05,0,0,0.05,148.2,0)" xlink:href="#ab"/><use transform="matrix(0.05,0,0,0.05,158.2,0)" xlink:href="#ae"/></g><path d="M9 0v-24l116-142H16v-24h144v24L44-24h123V0H9" id="aH"/><g id="I"><use transform="matrix(0.05,0,0,0.05,0,0)" xlink:href="#ah"/><use transform="matrix(0.05,0,0,0.05,10.5,0)" xlink:href="#aH"/><use transform="matrix(0.05,0,0,0.05,19.5,0)" xlink:href="#aD"/><use transform="matrix(0.05,0,0,0.05,24.5,0)" xlink:href="#aw"/><use transform="matrix(0.05,0,0,0.05,33.5,0)" xlink:href="#ai"/><use transform="matrix(0.05,0,0,0.05,38.5,0)" xlink:href="#ar"/><use transform="matrix(0.05,0,0,0.05,44.45,0)" xlink:href="#ad"/><use transform="matrix(0.05,0,0,0.05,48.400000000000006,0)" xlink:href="#ab"/><use transform="matrix(0.05,0,0,0.05,58.400000000000006,0)" xlink:href="#ae"/></g><use transform="matrix(0.05,0,0,0.05,0,0)" xlink:href="#am" id="J"/><g id="K"><use transform="matrix(0.05,0,0,0.05,0,0)" xlink:href="#an"/><use transform="matrix(0.05,0,0,0.05,5,0)" xlink:href="#at"/><use transform="matrix(0.05,0,0,0.05,14,0)" xlink:href="#ap"/><use transform="matrix(0.05,0,0,0.05,24,0)" xlink:href="#ax"/><use transform="matrix(0.05,0,0,0.05,27.950000000000003,0)" xlink:href="#ax"/><use transform="matrix(0.05,0,0,0.05,31.899999999999995,0)" xlink:href="#ag"/><use transform="matrix(0.05,0,0,0.05,41.9,0)" xlink:href="#at"/><use transform="matrix(0.05,0,0,0.05,50.9,0)" xlink:href="#ai"/><use transform="matrix(0.05,0,0,0.05,55.900000000000006,0)" xlink:href="#ad"/><use transform="matrix(0.05,0,0,0.05,59.85,0)" xlink:href="#ap"/><use transform="matrix(0.05,0,0,0.05,69.85,0)" xlink:href="#ab"/><use transform="matrix(0.05,0,0,0.05,79.85,0)" xlink:href="#aw"/><use transform="matrix(0.05,0,0,0.05,88.85,0)" xlink:href="#an"/><use transform="matrix(0.05,0,0,0.05,93.85,0)" xlink:href="#ay"/><use transform="matrix(0.05,0,0,0.05,99.85,0)" xlink:href="#at"/><use transform="matrix(0.05,0,0,0.05,108.84999999999998,0)" xlink:href="#ap"/><use transform="matrix(0.05,0,0,0.05,118.84999999999998,0)" xlink:href="#ax"/><use transform="matrix(0.05,0,0,0.05,122.80000000000001,0)" xlink:href="#ax"/><use transform="matrix(0.05,0,0,0.05,126.75,0)" xlink:href="#ag"/><use transform="matrix(0.05,0,0,0.05,136.75,0)" xlink:href="#at"/><use transform="matrix(0.05,0,0,0.05,145.75,0)" xlink:href="#ai"/><use transform="matrix(0.05,0,0,0.05,150.75,0)" xlink:href="#ad"/><use transform="matrix(0.05,0,0,0.05,154.7,0)" xlink:href="#ap"/><use transform="matrix(0.05,0,0,0.05,164.7,0)" xlink:href="#ab"/><use transform="matrix(0.05,0,0,0.05,174.7,0)" xlink:href="#az"/><use transform="matrix(0.05,0,0,0.05,179.7,0)" xlink:href="#ac"/><use transform="matrix(0.05,0,0,0.05,189.7,0)" xlink:href="#aA"/><use transform="matrix(0.05,0,0,0.05,195.7,0)" xlink:href="#an"/><use transform="matrix(0.05,0,0,0.05,200.7,0)" xlink:href="#ay"/><use transform="matrix(0.05,0,0,0.05,206.69999999999996,0)" xlink:href="#ad"/><use transform="matrix(0.05,0,0,0.05,210.64999999999998,0)" xlink:href="#ab"/><use transform="matrix(0.05,0,0,0.05,220.64999999999998,0)" xlink:href="#aw"/><use transform="matrix(0.05,0,0,0.05,229.64999999999998,0)" xlink:href="#ai"/><use transform="matrix(0.05,0,0,0.05,234.64999999999998,0)" xlink:href="#aa"/><use transform="matrix(0.05,0,0,0.05,244.64999999999998,0)" xlink:href="#ab"/><use transform="matrix(0.05,0,0,0.05,254.64999999999998,0)" xlink:href="#at"/><use transform="matrix(0.05,0,0,0.05,263.65,0)" xlink:href="#ag"/><use transform="matrix(0.05,0,0,0.05,273.65,0)" xlink:href="#az"/><use transform="matrix(0.05,0,0,0.05,278.65,0)" xlink:href="#ac"/><use transform="matrix(0.05,0,0,0.05,288.65,0)" xlink:href="#aA"/><use transform="matrix(0.05,0,0,0.05,294.65,0)" xlink:href="#an"/><use transform="matrix(0.05,0,0,0.05,299.65,0)" xlink:href="#af"/><use transform="matrix(0.05,0,0,0.05,309.65,0)" xlink:href="#ap"/><use transform="matrix(0.05,0,0,0.05,319.65,0)" xlink:href="#ax"/><use transform="matrix(0.05,0,0,0.05,323.59999999999997,0)" xlink:href="#aC"/><use transform="matrix(0.05,0,0,0.05,332.59999999999997,0)" xlink:href="#ae"/><use transform="matrix(0.05,0,0,0.05,342.59999999999997,0)" xlink:href="#ap"/><use transform="matrix(0.05,0,0,0.05,352.59999999999997,0)" xlink:href="#ab"/></g><g id="L"><use transform="matrix(0.05,0,0,0.05,0,0)" xlink:href="#aB"/><use transform="matrix(0.05,0,0,0.05,12,0)" xlink:href="#ap"/><use transform="matrix(0.05,0,0,0.05,22,0)" xlink:href="#ad"/><use transform="matrix(0.05,0,0,0.05,25.950000000000003,0)" xlink:href="#ab"/><use transform="matrix(0.05,0,0,0.05,35.95,0)" xlink:href="#ai"/></g><g id="M"><use transform="matrix(0.05,0,0,0.05,0,0)" xlink:href="#ah"/><use transform="matrix(0.05,0,0,0.05,10.5,0)" xlink:href="#at"/><use transform="matrix(0.05,0,0,0.05,19.5,0)" xlink:href="#ap"/><use transform="matrix(0.05,0,0,0.05,29.5,0)" xlink:href="#ap"/><use transform="matrix(0.05,0,0,0.05,39.5,0)" xlink:href="#ar"/><use transform="matrix(0.05,0,0,0.05,45.45,0)" xlink:href="#ac"/><use transform="matrix(0.05,0,0,0.05,55.45,0)" xlink:href="#aw"/><use transform="matrix(0.05,0,0,0.05,64.45,0)" xlink:href="#aD"/><use transform="matrix(0.05,0,0,0.05,69.45,0)" xlink:href="#aw"/><use transform="matrix(0.05,0,0,0.05,78.45,0)" xlink:href="#ai"/><use transform="matrix(0.05,0,0,0.05,83.45,0)" xlink:href="#ar"/><use transform="matrix(0.05,0,0,0.05,89.4,0)" xlink:href="#ad"/><use transform="matrix(0.05,0,0,0.05,93.35000000000001,0)" xlink:href="#ab"/><use transform="matrix(0.05,0,0,0.05,103.35000000000001,0)" xlink:href="#ae"/></g><g id="N"><use transform="matrix(0.05,0,0,0.05,0,0)" xlink:href="#an"/><use transform="matrix(0.05,0,0,0.05,5,0)" xlink:href="#at"/><use transform="matrix(0.05,0,0,0.05,14,0)" xlink:href="#ap"/><use transform="matrix(0.05,0,0,0.05,24,0)" xlink:href="#ax"/><use transform="matrix(0.05,0,0,0.05,27.950000000000003,0)" xlink:href="#ax"/><use transform="matrix(0.05,0,0,0.05,31.899999999999995,0)" xlink:href="#ag"/><use transform="matrix(0.05,0,0,0.05,41.9,0)" xlink:href="#at"/><use transform="matrix(0.05,0,0,0.05,50.9,0)" xlink:href="#ai"/><use transform="matrix(0.05,0,0,0.05,55.900000000000006,0)" xlink:href="#ad"/><use transform="matrix(0.05,0,0,0.05,59.85,0)" xlink:href="#ap"/><use transform="matrix(0.05,0,0,0.05,69.85,0)" xlink:href="#ab"/><use transform="matrix(0.05,0,0,0.05,79.85,0)" xlink:href="#aw"/><use transform="matrix(0.05,0,0,0.05,88.85,0)" xlink:href="#an"/><use transform="matrix(0.05,0,0,0.05,93.85,0)" xlink:href="#ay"/><use transform="matrix(0.05,0,0,0.05,99.85,0)" xlink:href="#at"/><use transform="matrix(0.05,0,0,0.05,108.84999999999998,0)" xlink:href="#ap"/><use transform="matrix(0.05,0,0,0.05,118.84999999999998,0)" xlink:href="#ax"/><use transform="matrix(0.05,0,0,0.05,122.80000000000001,0)" xlink:href="#ax"/><use transform="matrix(0.05,0,0,0.05,126.75,0)" xlink:href="#ag"/><use transform="matrix(0.05,0,0,0.05,136.75,0)" xlink:href="#at"/><use transform="matrix(0.05,0,0,0.05,145.75,0)" xlink:href="#ai"/><use transform="matrix(0.05,0,0,0.05,150.75,0)" xlink:href="#ad"/><use transform="matrix(0.05,0,0,0.05,154.7,0)" xlink:href="#ap"/><use transform="matrix(0.05,0,0,0.05,164.7,0)" xlink:href="#ab"/><use transform="matrix(0.05,0,0,0.05,174.7,0)" xlink:href="#az"/><use transform="matrix(0.05,0,0,0.05,179.7,0)" xlink:href="#ac"/><use transform="matrix(0.05,0,0,0.05,189.7,0)" xlink:href="#aA"/><use transform="matrix(0.05,0,0,0.05,195.7,0)" xlink:href="#an"/><use transform="matrix(0.05,0,0,0.05,200.7,0)" xlink:href="#ay"/><use transform="matrix(0.05,0,0,0.05,206.69999999999996,0)" xlink:href="#ad"/><use transform="matrix(0.05,0,0,0.05,210.64999999999998,0)" xlink:href="#ab"/><use transform="matrix(0.05,0,0,0.05,220.64999999999998,0)" xlink:href="#aw"/><use transform="matrix(0.05,0,0,0.05,229.64999999999998,0)" xlink:href="#ai"/><use transform="matrix(0.05,0,0,0.05,234.64999999999998,0)" xlink:href="#aa"/><use transform="matrix(0.05,0,0,0.05,244.64999999999998,0)" xlink:href="#ab"/><use transform="matrix(0.05,0,0,0.05,254.64999999999998,0)" xlink:href="#at"/><use transform="matrix(0.05,0,0,0.05,263.65,0)" xlink:href="#ag"/><use transform="matrix(0.05,0,0,0.05,273.65,0)" xlink:href="#az"/><use transform="matrix(0.05,0,0,0.05,278.65,0)" xlink:href="#ac"/><use transform="matrix(0.05,0,0,0.05,288.65,0)" xlink:href="#aA"/><use transform="matrix(0.05,0,0,0.05,294.65,0)" xlink:href="#an"/><use transform="matrix(0.05,0,0,0.05,299.65,0)" xlink:href="#af"/><use transform="matrix(0.05,0,0,0.05,309.65,0)" xlink:href="#ap"/><use transform="matrix(0.05,0,0,0.05,319.65,0)" xlink:href="#ad"/><use transform="matrix(0.05,0,0,0.05,323.59999999999997,0)" xlink:href="#ab"/><use transform="matrix(0.05,0,0,0.05,333.59999999999997,0)" xlink:href="#ai"/></g><path d="M127-220V0H93v-220H8v-28h204v28h-85" id="aI"/><path d="M24-231v-30h32v30H24zM-9 49c24 4 33-6 33-30v-209h32V24c2 40-23 58-65 49V49" id="aJ"/><g id="O"><use transform="matrix(0.05,0,0,0.05,0,0)" xlink:href="#aI"/><use transform="matrix(0.05,0,0,0.05,10.3,0)" xlink:href="#ar"/><use transform="matrix(0.05,0,0,0.05,16.25,0)" xlink:href="#aa"/><use transform="matrix(0.05,0,0,0.05,26.25,0)" xlink:href="#aJ"/><use transform="matrix(0.05,0,0,0.05,30.200000000000003,0)" xlink:href="#ag"/><use transform="matrix(0.05,0,0,0.05,40.2,0)" xlink:href="#at"/><use transform="matrix(0.05,0,0,0.05,49.2,0)" xlink:href="#ai"/><use transform="matrix(0.05,0,0,0.05,54.2,0)" xlink:href="#ap"/><use transform="matrix(0.05,0,0,0.05,64.2,0)" xlink:href="#ar"/><use transform="matrix(0.05,0,0,0.05,70.15,0)" xlink:href="#aC"/></g><path d="M209 0H11v-25l151-195H24v-28h176v25L50-27h159V0" id="aK"/><g id="P"><use transform="matrix(0.05,0,0,0.05,0,0)" xlink:href="#ah"/><use transform="matrix(0.05,0,0,0.05,10.5,0)" xlink:href="#ad"/><use transform="matrix(0.05,0,0,0.05,14.449999999999998,0)" xlink:href="#ab"/><use transform="matrix(0.05,0,0,0.05,24.45,0)" xlink:href="#ai"/><use transform="matrix(0.05,0,0,0.05,29.450000000000003,0)" xlink:href="#ag"/><use transform="matrix(0.05,0,0,0.05,39.45,0)" xlink:href="#ar"/><use transform="matrix(0.05,0,0,0.05,45.400000000000006,0)" xlink:href="#af"/><use transform="matrix(0.05,0,0,0.05,55.400000000000006,0)" xlink:href="#ap"/><use transform="matrix(0.05,0,0,0.05,65.4,0)" xlink:href="#ax"/><use transform="matrix(0.05,0,0,0.05,69.35000000000001,0)" xlink:href="#aa"/><use transform="matrix(0.05,0,0,0.05,79.35000000000001,0)" xlink:href="#ai"/><use transform="matrix(0.05,0,0,0.05,84.35000000000001,0)" xlink:href="#ad"/><use transform="matrix(0.05,0,0,0.05,88.30000000000001,0)" xlink:href="#ap"/><use transform="matrix(0.05,0,0,0.05,98.30000000000001,0)" xlink:href="#ab"/><use transform="matrix(0.05,0,0,0.05,108.30000000000001,0)" xlink:href="#aK"/><use transform="matrix(0.05,0,0,0.05,119.25,0)" xlink:href="#aD"/><use transform="matrix(0.05,0,0,0.05,124.25,0)" xlink:href="#aw"/><use transform="matrix(0.05,0,0,0.05,133.25,0)" xlink:href="#ai"/><use transform="matrix(0.05,0,0,0.05,138.25,0)" xlink:href="#ar"/><use transform="matrix(0.05,0,0,0.05,144.2,0)" xlink:href="#ad"/><use transform="matrix(0.05,0,0,0.05,148.14999999999998,0)" xlink:href="#ab"/><use transform="matrix(0.05,0,0,0.05,158.14999999999998,0)" xlink:href="#ae"/></g><path d="M-5 72V49h209v23H-5" id="aL"/><path d="M206 0h-36l-40-164L89 0H53L-1-190h32L70-26l43-164h34l41 164 42-164h31" id="aM"/><g id="Q"><use transform="matrix(0.05,0,0,0.05,0,0)" xlink:href="#ah"/><use transform="matrix(0.05,0,0,0.05,10.5,0)" xlink:href="#at"/><use transform="matrix(0.05,0,0,0.05,19.5,0)" xlink:href="#ap"/><use transform="matrix(0.05,0,0,0.05,29.5,0)" xlink:href="#ar"/><use transform="matrix(0.05,0,0,0.05,35.45,0)" xlink:href="#ar"/><use transform="matrix(0.05,0,0,0.05,41.400000000000006,0)" xlink:href="#ad"/><use transform="matrix(0.05,0,0,0.05,45.35000000000001,0)" xlink:href="#ac"/><use transform="matrix(0.05,0,0,0.05,55.35,0)" xlink:href="#ap"/><use transform="matrix(0.05,0,0,0.05,65.35000000000001,0)" xlink:href="#ar"/><use transform="matrix(0.05,0,0,0.05,71.30000000000001,0)" xlink:href="#aL"/><use transform="matrix(0.05,0,0,0.05,81.30000000000001,0)" xlink:href="#aM"/><use transform="matrix(0.05,0,0,0.05,94.25000000000001,0)" xlink:href="#ad"/><use transform="matrix(0.05,0,0,0.05,98.20000000000002,0)" xlink:href="#ac"/><use transform="matrix(0.05,0,0,0.05,108.2,0)" xlink:href="#ai"/><use transform="matrix(0.05,0,0,0.05,113.2,0)" xlink:href="#al"/><use transform="matrix(0.05,0,0,0.05,123.2,0)" xlink:href="#aD"/><use transform="matrix(0.05,0,0,0.05,128.20000000000002,0)" xlink:href="#aw"/><use transform="matrix(0.05,0,0,0.05,137.20000000000002,0)" xlink:href="#ai"/><use transform="matrix(0.05,0,0,0.05,142.20000000000002,0)" xlink:href="#ar"/><use transform="matrix(0.05,0,0,0.05,148.15,0)" xlink:href="#ad"/><use transform="matrix(0.05,0,0,0.05,152.1,0)" xlink:href="#ab"/><use transform="matrix(0.05,0,0,0.05,162.1,0)" xlink:href="#ae"/></g><g id="R"><use transform="matrix(0.05,0,0,0.05,0,0)" xlink:href="#ah"/><use transform="matrix(0.05,0,0,0.05,10.5,0)" xlink:href="#at"/><use transform="matrix(0.05,0,0,0.05,19.5,0)" xlink:href="#ap"/><use transform="matrix(0.05,0,0,0.05,29.5,0)" xlink:href="#ar"/><use transform="matrix(0.05,0,0,0.05,35.45,0)" xlink:href="#ar"/><use transform="matrix(0.05,0,0,0.05,41.400000000000006,0)" xlink:href="#ad"/><use transform="matrix(0.05,0,0,0.05,45.35000000000001,0)" xlink:href="#ac"/><use transform="matrix(0.05,0,0,0.05,55.35,0)" xlink:href="#ap"/><use transform="matrix(0.05,0,0,0.05,65.35000000000001,0)" xlink:href="#ar"/><use transform="matrix(0.05,0,0,0.05,71.30000000000001,0)" xlink:href="#aL"/><use transform="matrix(0.05,0,0,0.05,81.30000000000001,0)" xlink:href="#al"/><use transform="matrix(0.05,0,0,0.05,91.30000000000001,0)" xlink:href="#ag"/><use transform="matrix(0.05,0,0,0.05,101.30000000000001,0)" xlink:href="#ad"/><use transform="matrix(0.05,0,0,0.05,105.25,0)" xlink:href="#ae"/><use transform="matrix(0.05,0,0,0.05,115.25,0)" xlink:href="#al"/><use transform="matrix(0.05,0,0,0.05,125.25,0)" xlink:href="#ai"/><use transform="matrix(0.05,0,0,0.05,130.25,0)" xlink:href="#aD"/><use transform="matrix(0.05,0,0,0.05,135.25,0)" xlink:href="#aw"/><use transform="matrix(0.05,0,0,0.05,144.25,0)" xlink:href="#ai"/><use transform="matrix(0.05,0,0,0.05,149.25,0)" xlink:href="#ar"/><use transform="matrix(0.05,0,0,0.05,155.2,0)" xlink:href="#ad"/><use transform="matrix(0.05,0,0,0.05,159.14999999999998,0)" xlink:href="#ab"/><use transform="matrix(0.05,0,0,0.05,169.14999999999998,0)" xlink:href="#ae"/></g><g id="S"><use transform="matrix(0.05,0,0,0.05,0,0)" xlink:href="#an"/><use transform="matrix(0.05,0,0,0.05,5,0)" xlink:href="#at"/><use transform="matrix(0.05,0,0,0.05,14,0)" xlink:href="#ap"/><use transform="matrix(0.05,0,0,0.05,24,0)" xlink:href="#ax"/><use transform="matrix(0.05,0,0,0.05,27.950000000000003,0)" xlink:href="#ax"/><use transform="matrix(0.05,0,0,0.05,31.899999999999995,0)" xlink:href="#ag"/><use transform="matrix(0.05,0,0,0.05,41.9,0)" xlink:href="#at"/><use transform="matrix(0.05,0,0,0.05,50.9,0)" xlink:href="#ai"/><use transform="matrix(0.05,0,0,0.05,55.900000000000006,0)" xlink:href="#ad"/><use transform="matrix(0.05,0,0,0.05,59.85,0)" xlink:href="#ap"/><use transform="matrix(0.05,0,0,0.05,69.85,0)" xlink:href="#ab"/><use transform="matrix(0.05,0,0,0.05,79.85,0)" xlink:href="#aw"/><use transform="matrix(0.05,0,0,0.05,88.85,0)" xlink:href="#an"/><use transform="matrix(0.05,0,0,0.05,93.85,0)" xlink:href="#ay"/><use transform="matrix(0.05,0,0,0.05,99.85,0)" xlink:href="#at"/><use transform="matrix(0.05,0,0,0.05,108.84999999999998,0)" xlink:href="#ap"/><use transform="matrix(0.05,0,0,0.05,118.84999999999998,0)" xlink:href="#ax"/><use transform="matrix(0.05,0,0,0.05,122.80000000000001,0)" xlink:href="#ax"/><use transform="matrix(0.05,0,0,0.05,126.75,0)" xlink:href="#ag"/><use transform="matrix(0.05,0,0,0.05,136.75,0)" xlink:href="#at"/><use transform="matrix(0.05,0,0,0.05,145.75,0)" xlink:href="#ai"/><use transform="matrix(0.05,0,0,0.05,150.75,0)" xlink:href="#ad"/><use transform="matrix(0.05,0,0,0.05,154.7,0)" xlink:href="#ap"/><use transform="matrix(0.05,0,0,0.05,164.7,0)" xlink:href="#ab"/><use transform="matrix(0.05,0,0,0.05,174.7,0)" xlink:href="#az"/><use transform="matrix(0.05,0,0,0.05,179.7,0)" xlink:href="#ac"/><use transform="matrix(0.05,0,0,0.05,189.7,0)" xlink:href="#aA"/><use transform="matrix(0.05,0,0,0.05,195.7,0)" xlink:href="#an"/><use transform="matrix(0.05,0,0,0.05,200.7,0)" xlink:href="#ay"/><use transform="matrix(0.05,0,0,0.05,206.69999999999996,0)" xlink:href="#ad"/><use transform="matrix(0.05,0,0,0.05,210.64999999999998,0)" xlink:href="#ab"/><use transform="matrix(0.05,0,0,0.05,220.64999999999998,0)" xlink:href="#aw"/><use transform="matrix(0.05,0,0,0.05,229.64999999999998,0)" xlink:href="#ai"/><use transform="matrix(0.05,0,0,0.05,234.64999999999998,0)" xlink:href="#aa"/><use transform="matrix(0.05,0,0,0.05,244.64999999999998,0)" xlink:href="#ab"/><use transform="matrix(0.05,0,0,0.05,254.64999999999998,0)" xlink:href="#at"/><use transform="matrix(0.05,0,0,0.05,263.65,0)" xlink:href="#ag"/><use transform="matrix(0.05,0,0,0.05,273.65,0)" xlink:href="#az"/><use transform="matrix(0.05,0,0,0.05,278.65,0)" xlink:href="#ac"/><use transform="matrix(0.05,0,0,0.05,288.65,0)" xlink:href="#aA"/><use transform="matrix(0.05,0,0,0.05,294.65,0)" xlink:href="#an"/><use transform="matrix(0.05,0,0,0.05,299.65,0)" xlink:href="#ai"/><use transform="matrix(0.05,0,0,0.05,304.65,0)" xlink:href="#ar"/><use transform="matrix(0.05,0,0,0.05,310.59999999999997,0)" xlink:href="#aa"/><use transform="matrix(0.05,0,0,0.05,320.59999999999997,0)" xlink:href="#aJ"/><use transform="matrix(0.05,0,0,0.05,324.54999999999995,0)" xlink:href="#ag"/><use transform="matrix(0.05,0,0,0.05,334.54999999999995,0)" xlink:href="#at"/><use transform="matrix(0.05,0,0,0.05,343.54999999999995,0)" xlink:href="#ai"/><use transform="matrix(0.05,0,0,0.05,348.54999999999995,0)" xlink:href="#ap"/><use transform="matrix(0.05,0,0,0.05,358.54999999999995,0)" xlink:href="#ar"/><use transform="matrix(0.05,0,0,0.05,364.49999999999994,0)" xlink:href="#aC"/></g><path d="M115-194c53 0 69 39 70 98 0 66-23 100-70 100C84 3 66-7 56-30L54 0H23l1-261h32v101c10-23 28-34 59-34zm-8 174c40 0 45-34 45-75 0-40-5-75-45-74-42 0-51 32-51 76 0 43 10 73 51 73" id="aN"/><g id="T"><use transform="matrix(0.05,0,0,0.05,0,0)" xlink:href="#ao"/><use transform="matrix(0.05,0,0,0.05,12.950000000000001,0)" xlink:href="#av"/><use transform="matrix(0.05,0,0,0.05,22.950000000000003,0)" xlink:href="#aN"/><use transform="matrix(0.05,0,0,0.05,32.95,0)" xlink:href="#ag"/></g><path d="M141 0L90-78 38 0H4l68-98-65-92h35l48 74 47-74h35l-64 92 68 98h-35" id="aO"/><g id="U"><use transform="matrix(0.05,0,0,0.05,0,0)" xlink:href="#ah"/><use transform="matrix(0.05,0,0,0.05,10.5,0)" xlink:href="#aN"/><use transform="matrix(0.05,0,0,0.05,20.5,0)" xlink:href="#aN"/><use transform="matrix(0.05,0,0,0.05,30.5,0)" xlink:href="#ap"/><use transform="matrix(0.05,0,0,0.05,40.5,0)" xlink:href="#aO"/><use transform="matrix(0.05,0,0,0.05,49.5,0)" xlink:href="#aD"/><use transform="matrix(0.05,0,0,0.05,54.5,0)" xlink:href="#aw"/><use transform="matrix(0.05,0,0,0.05,63.5,0)" xlink:href="#ai"/><use transform="matrix(0.05,0,0,0.05,68.5,0)" xlink:href="#ar"/><use transform="matrix(0.05,0,0,0.05,74.45,0)" xlink:href="#ad"/><use transform="matrix(0.05,0,0,0.05,78.4,0)" xlink:href="#ab"/><use transform="matrix(0.05,0,0,0.05,88.4,0)" xlink:href="#ae"/></g><g id="V"><use transform="matrix(0.05,0,0,0.05,0,0)" xlink:href="#ah"/><use transform="matrix(0.05,0,0,0.05,10.5,0)" xlink:href="#aH"/><use transform="matrix(0.05,0,0,0.05,19.5,0)" xlink:href="#aD"/><use transform="matrix(0.05,0,0,0.05,24.5,0)" xlink:href="#aw"/><use transform="matrix(0.05,0,0,0.05,33.5,0)" xlink:href="#ai"/><use transform="matrix(0.05,0,0,0.05,38.5,0)" xlink:href="#ar"/><use transform="matrix(0.05,0,0,0.05,44.45,0)" xlink:href="#ad"/><use transform="matrix(0.05,0,0,0.05,48.400000000000006,0)" xlink:href="#ab"/><use transform="matrix(0.05,0,0,0.05,58.400000000000006,0)" xlink:href="#ae"/></g><g id="W"><use transform="matrix(0.05,0,0,0.05,0,0)" xlink:href="#ah"/><use transform="matrix(0.05,0,0,0.05,10.5,0)" xlink:href="#ai"/><use transform="matrix(0.05,0,0,0.05,15.5,0)" xlink:href="#ad"/><use transform="matrix(0.05,0,0,0.05,19.45,0)" xlink:href="#as"/><use transform="matrix(0.05,0,0,0.05,34.4,0)" xlink:href="#ag"/><use transform="matrix(0.05,0,0,0.05,44.4,0)" xlink:href="#aD"/><use transform="matrix(0.05,0,0,0.05,49.4,0)" xlink:href="#aw"/><use transform="matrix(0.05,0,0,0.05,58.400000000000006,0)" xlink:href="#ai"/><use transform="matrix(0.05,0,0,0.05,63.400000000000006,0)" xlink:href="#ar"/><use transform="matrix(0.05,0,0,0.05,69.35,0)" xlink:href="#ad"/><use transform="matrix(0.05,0,0,0.05,73.3,0)" xlink:href="#ab"/><use transform="matrix(0.05,0,0,0.05,83.3,0)" xlink:href="#ae"/></g><g id="Y"><use transform="matrix(0.05,0,0,0.05,0,0)" xlink:href="#an"/><use transform="matrix(0.05,0,0,0.05,5,0)" xlink:href="#at"/><use transform="matrix(0.05,0,0,0.05,14,0)" xlink:href="#ap"/><use transform="matrix(0.05,0,0,0.05,24,0)" xlink:href="#ax"/><use transform="matrix(0.05,0,0,0.05,27.950000000000003,0)" xlink:href="#ax"/><use transform="matrix(0.05,0,0,0.05,31.899999999999995,0)" xlink:href="#ag"/><use transform="matrix(0.05,0,0,0.05,41.9,0)" xlink:href="#at"/><use transform="matrix(0.05,0,0,0.05,50.9,0)" xlink:href="#ai"/><use transform="matrix(0.05,0,0,0.05,55.900000000000006,0)" xlink:href="#ad"/><use transform="matrix(0.05,0,0,0.05,59.85,0)" xlink:href="#ap"/><use transform="matrix(0.05,0,0,0.05,69.85,0)" xlink:href="#ab"/><use transform="matrix(0.05,0,0,0.05,79.85,0)" xlink:href="#aw"/><use transform="matrix(0.05,0,0,0.05,88.85,0)" xlink:href="#an"/><use transform="matrix(0.05,0,0,0.05,93.85,0)" xlink:href="#ay"/><use transform="matrix(0.05,0,0,0.05,99.85,0)" xlink:href="#at"/><use transform="matrix(0.05,0,0,0.05,108.84999999999998,0)" xlink:href="#ap"/><use transform="matrix(0.05,0,0,0.05,118.84999999999998,0)" xlink:href="#ax"/><use transform="matrix(0.05,0,0,0.05,122.80000000000001,0)" xlink:href="#ax"/><use transform="matrix(0.05,0,0,0.05,126.75,0)" xlink:href="#ag"/><use transform="matrix(0.05,0,0,0.05,136.75,0)" xlink:href="#at"/><use transform="matrix(0.05,0,0,0.05,145.75,0)" xlink:href="#ai"/><use transform="matrix(0.05,0,0,0.05,150.75,0)" xlink:href="#ad"/><use transform="matrix(0.05,0,0,0.05,154.7,0)" xlink:href="#ap"/><use transform="matrix(0.05,0,0,0.05,164.7,0)" xlink:href="#ab"/><use transform="matrix(0.05,0,0,0.05,174.7,0)" xlink:href="#az"/><use transform="matrix(0.05,0,0,0.05,179.7,0)" xlink:href="#ac"/><use transform="matrix(0.05,0,0,0.05,189.7,0)" xlink:href="#aA"/><use transform="matrix(0.05,0,0,0.05,195.7,0)" xlink:href="#an"/><use transform="matrix(0.05,0,0,0.05,200.7,0)" xlink:href="#ay"/><use transform="matrix(0.05,0,0,0.05,206.69999999999996,0)" xlink:href="#ad"/><use transform="matrix(0.05,0,0,0.05,210.64999999999998,0)" xlink:href="#ab"/><use transform="matrix(0.05,0,0,0.05,220.64999999999998,0)" xlink:href="#aw"/><use transform="matrix(0.05,0,0,0.05,229.64999999999998,0)" xlink:href="#ai"/><use transform="matrix(0.05,0,0,0.05,234.64999999999998,0)" xlink:href="#aa"/><use transform="matrix(0.05,0,0,0.05,244.64999999999998,0)" xlink:href="#ab"/><use transform="matrix(0.05,0,0,0.05,254.64999999999998,0)" xlink:href="#at"/><use transform="matrix(0.05,0,0,0.05,263.65,0)" xlink:href="#ag"/><use transform="matrix(0.05,0,0,0.05,273.65,0)" xlink:href="#az"/><use transform="matrix(0.05,0,0,0.05,278.65,0)" xlink:href="#ac"/><use transform="matrix(0.05,0,0,0.05,288.65,0)" xlink:href="#aA"/><use transform="matrix(0.05,0,0,0.05,294.65,0)" xlink:href="#an"/><use transform="matrix(0.05,0,0,0.05,299.65,0)" xlink:href="#at"/><use transform="matrix(0.05,0,0,0.05,308.65,0)" xlink:href="#av"/><use transform="matrix(0.05,0,0,0.05,318.65,0)" xlink:href="#aN"/><use transform="matrix(0.05,0,0,0.05,328.65,0)" xlink:href="#ag"/></g></defs></g></svg>